<?xml version="1.0" encoding="UTF-8"?>
<svg width="26px" height="26px" viewBox="0 0 26 26" version="1.1" xmlns="http://www.w3.org/2000/svg" xmlns:xlink="http://www.w3.org/1999/xlink">
    <title>tab_bar_chat_icon</title>
    <g id="Page-1" stroke="none" stroke-width="1" fill="none" fill-rule="evenodd">
        <g id="Atendees-User-Profile-v2" transform="translate(-15.000000, -836.000000)" stroke="#9D0511">
            <g id="Dashboard" transform="translate(15.000000, 711.000000)">
                <g id="tab_bar_chat_icon" transform="translate(1.000000, 126.000000)">
                    <path d="M4.254,21.324 C4.3872,21.324 4.5168,21.36 4.6236,21.444 C6.7572,23.112 9.3072,24 12,24 C18.6168,24 24,18.612 24,12 C24,5.376 18.6168,0 12,0 C5.3844,0 0,5.376 0,12 C0,14.052 0.5352,16.0812 1.5444,17.868 C1.6272,18.012 1.644,18.192 1.5936,18.348 L0.3084,22.3812 L4.0956,21.3372 C4.1472,21.324 4.2012,21.324 4.254,21.324 L4.254,21.324 Z" id="Fill-2657"></path>
                </g>
            </g>
        </g>
    </g>
</svg>