<?xml version="1.0" encoding="UTF-8"?>
<svg width="26px" height="26px" viewBox="0 0 26 26" version="1.1" xmlns="http://www.w3.org/2000/svg" xmlns:xlink="http://www.w3.org/1999/xlink">
    <title>facebook_messenger_icon</title>
    <g id="Page-1" stroke="none" stroke-width="1" fill="none" fill-rule="evenodd">
        <g id="Atendees-User-Profile-v2" transform="translate(-88.000000, -380.000000)" stroke="#9D0511">
            <g id="Social-Media" transform="translate(53.000000, 351.000000)">
                <g id="Social-Icons" transform="translate(0.000000, 30.000000)">
                    <g id="facebook_messenger_icon" transform="translate(36.000000, 0.000000)">
                        <path d="M12.1039516,0 C5.41920686,0 0,5.18434965 0,11.5788426 C0,15.1028656 1.64709823,18.2566552 4.24305082,20.3803874 L4.24305082,22.9719263 C4.24305082,23.7287381 5.03386877,24.2255265 5.71512531,23.8968612 L8.39859607,22.6036071 C9.56655436,22.9624882 10.8113272,23.1583086 12.1039516,23.1583086 C18.7887027,23.1583086 24.2079033,17.9739526 24.2079033,11.5788426 C24.2079033,5.18434965 18.7887027,0 12.1039516,0 Z" id="Clip-2"></path>
                        <path d="M19.3408857,8.98289003 L15.5990117,14.666534 C15.1085322,15.4113829 14.0979807,15.600271 13.3720206,15.0833471 L10.2748849,12.878393 C10.0815893,12.7411343 9.82155334,12.7474305 9.63518372,12.8941337 L5.95815508,15.7929369 C5.3480464,16.273972 4.53205596,15.5335305 4.95201095,14.8799776 L8.59126196,9.2120743 C9.07922297,8.452744 10.1036263,8.25818922 10.8358826,8.78581674 L14.0816104,11.1261407 C14.2799429,11.2696957 14.5506826,11.258992 14.7376818,11.1015853 L18.3215194,8.07811586 C18.9291095,7.56496977 19.7778469,8.31926305 19.3408857,8.98289003 Z" id="Fill-4"></path>
                    </g>
                </g>
            </g>
        </g>
    </g>
</svg>