<?xml version="1.0" encoding="UTF-8"?>
<svg width="26px" height="26px" viewBox="0 0 26 26" version="1.1" xmlns="http://www.w3.org/2000/svg" xmlns:xlink="http://www.w3.org/1999/xlink">
    <title>linkedin_icon</title>
    <g id="Page-1" stroke="none" stroke-width="1" fill="none" fill-rule="evenodd">
        <g id="Atendees-User-Profile-v2" transform="translate(-137.000000, -380.000000)" stroke="#9D0511">
            <g id="Social-Media" transform="translate(53.000000, 351.000000)">
                <g id="Social-Icons" transform="translate(0.000000, 30.000000)">
                    <g id="linkedin_icon" transform="translate(85.000000, 0.000000)">
                        <path d="M5.86796091,2.93437936 C5.86796091,4.55475035 4.55475833,5.86796091 2.93437936,5.86796091 C1.31400838,5.86796091 0,4.55475035 0,2.93437936 C0,1.31400838 1.31400838,0 2.93437936,0 C4.55475833,0 5.86796091,1.31400838 5.86796091,2.93437936 Z" id="Fill-1"></path>
                        <polygon id="Fill-2" points="0.401303105 24 5.4666578 24 5.4666578 7.90479356 0.401303105 7.90479356"></polygon>
                        <path d="M23.9888305,14.5338741 L23.9888305,23.9992022 L18.9218802,23.9992022 L18.9218802,14.5338741 C18.9218802,13.0283891 17.8567914,11.8109168 16.4223123,11.8109168 C14.8075261,11.8109168 13.5094741,13.0283891 13.5094741,14.5338741 L13.5094741,23.9992022 L8.44332159,23.9992022 L8.44332159,7.9063892 L13.2549697,7.9063892 L13.2549697,10.0956053 C14.4564856,8.52071006 16.2882787,7.51545775 18.3482481,7.51545775 C22.2057044,7.51545775 23.9888305,10.6556745 23.9888305,14.5338741 Z" id="Fill-3"></path>
                    </g>
                </g>
            </g>
        </g>
    </g>
</svg>