<?xml version="1.0" encoding="UTF-8"?>
<svg width="36px" height="26px" viewBox="0 0 36 26" version="1.1" xmlns="http://www.w3.org/2000/svg" xmlns:xlink="http://www.w3.org/1999/xlink">
    <title>youtube_icon</title>
    <g id="Page-1" stroke="none" stroke-width="1" fill="none" fill-rule="evenodd">
        <g id="Atendees-User-Profile-v2" transform="translate(-286.000000, -380.000000)" stroke="#9D0511">
            <g id="Social-Media" transform="translate(53.000000, 351.000000)">
                <g id="Social-Icons" transform="translate(0.000000, 30.000000)">
                    <g id="youtube_icon" transform="translate(234.000000, 0.000000)">
                        <path d="M34.1512658,11.9985826 C34.1512658,15.9861506 33.7147132,18.7141321 33.1959526,20.5472656 C32.7490059,22.1290696 31.3921021,23.2780818 29.7592819,23.4784047 C27.6454979,23.7354321 23.8280247,24 17.0756329,24 C10.3213512,24 6.50577739,23.7354321 4.39198394,23.4784047 C2.75918264,23.2780818 1.40224103,22.1290696 0.955303752,20.5472656 C0.436562069,18.7141321 0,15.9861506 0,11.9985826 C0,8.01385881 0.436562069,5.28682232 0.955303752,3.45273436 C1.40224103,1.8709398 2.75918264,0.720028348 4.39198394,0.521595338 C6.50577739,0.264577346 10.3213512,0 17.0756329,0 C23.8280247,0 27.6454979,0.264577346 29.7592819,0.521595338 C31.3921021,0.720028348 32.7490059,1.8709398 33.1959526,3.45273436 C33.7147132,5.28682232 34.1512658,8.01385881 34.1512658,11.9985826 Z" id="Fill-1"></path>
                        <polygon id="Fill-2" points="22.4011969 11.9985826 13.5756526 17.0756329 13.5756526 6.9243671"></polygon>
                    </g>
                </g>
            </g>
        </g>
    </g>
</svg>